<?xml version="1.0" encoding="UTF-8"?>
<!DOCTYPE svg PUBLIC "-//W3C//DTD SVG 1.1//EN" "http://www.w3.org/Graphics/SVG/1.1/DTD/svg11.dtd">
<!-- Creator: CorelDRAW X7 -->
<svg xmlns="http://www.w3.org/2000/svg" xml:space="preserve" width="210mm" height="297mm" version="1.1" style="shape-rendering:geometricPrecision; text-rendering:geometricPrecision; image-rendering:optimizeQuality; fill-rule:evenodd; clip-rule:evenodd"
viewBox="0 0 21000 29700"
 xmlns:xlink="http://www.w3.org/1999/xlink">
 <defs>
  <style type="text/css">
   <![CDATA[
    .str0 {stroke:#2B2A29;stroke-width:105.83}
    .fil0 {fill:none}
   ]]>
  </style>
 </defs>
 <g id="Слой_x0020_3">
  <metadata id="CorelCorpID_0Corel-Layer"/>
  <path class="fil0 str0" d="M9320 14609c186,-13 370,16 524,-8l-4 1551c-72,128 -361,185 -487,122 -64,-31 -117,-86 -139,-147 -63,-178 33,-479 27,-763 -5,-232 -119,-447 -110,-637 6,-129 76,-110 189,-118zm194 1412c27,0 50,22 50,50 0,28 -23,50 -50,50 -28,0 -50,-22 -50,-50 0,-28 22,-50 50,-50zm330 -1420c426,-67 537,-512 559,-878 5,-91 -1,-159 39,-245 146,-321 616,41 340,955 -31,101 0,77 121,72 277,-12 640,-97 827,-11 219,100 238,273 63,492 -38,48 -33,31 16,79 159,156 162,224 -56,423 -49,45 -38,21 -18,78 74,213 -10,265 -169,365 -51,31 -44,21 -34,78 29,179 22,276 -206,287 -769,34 -993,94 -1486,-144l4 -1551z"/>
 </g>
</svg>
